<?xml version="1.0" standalone="no"?>
<!DOCTYPE svg PUBLIC "-//W3C//DTD SVG 20010904//EN"
 "http://www.w3.org/TR/2001/REC-SVG-20010904/DTD/svg10.dtd">
<svg version="1.0" xmlns="http://www.w3.org/2000/svg"
 width="1280.000000pt" height="833.000000pt" viewBox="0 0 1280.000000 833.000000"
 preserveAspectRatio="xMidYMid meet">
<metadata>
Created by potrace 1.15, written by Peter Selinger 2001-2017
</metadata>
<g transform="translate(0.000000,833.000000) scale(0.100000,-0.100000)"
fill="#000000" stroke="none">
<path d="M6292 8153 c-168 -285 -349 -609 -550 -983 -89 -166 -257 -564 -322
-762 -12 -38 -25 -68 -28 -68 -4 0 -50 37 -102 81 -287 246 -654 486 -996 654
-181 89 -454 199 -464 188 -11 -11 -28 -191 -41 -428 -19 -341 2 -709 56 -980
13 -65 23 -121 21 -122 -2 -2 -36 12 -77 31 -277 128 -926 354 -1443 502 -104
30 -197 54 -206 54 -27 0 -45 -110 -45 -265 1 -153 16 -222 75 -340 65 -130
72 -136 265 -214 271 -109 488 -225 639 -343 28 -21 29 -21 22 -3 -4 11 -21
56 -38 100 -16 44 -47 117 -68 163 -31 65 -36 82 -22 77 9 -4 62 -23 117 -42
699 -244 1568 -667 2135 -1037 80 -52 146 -93 148 -91 2 2 12 37 22 78 25 99
114 338 211 568 91 214 365 728 609 1144 149 254 185 315 190 315 3 0 14 -17
26 -38 12 -20 66 -114 121 -208 225 -383 517 -917 597 -1092 80 -176 167 -397
232 -587 31 -93 60 -173 64 -178 3 -4 55 25 115 64 641 417 1371 765 2170
1035 87 30 164 54 170 54 5 0 -41 -102 -102 -227 -62 -126 -113 -231 -113
-236 0 -4 36 22 81 57 114 90 306 203 573 336 227 114 231 117 283 180 61 75
161 268 198 385 23 70 75 303 75 334 0 17 -14 15 -256 -50 -693 -184 -1348
-386 -1586 -489 -50 -22 -92 -39 -94 -37 -1 1 9 52 21 112 71 334 83 821 33
1313 -10 107 -12 112 -32 106 -78 -23 -301 -118 -454 -193 -364 -180 -700
-401 -1007 -664 -55 -48 -103 -83 -106 -79 -4 4 -25 61 -49 127 -83 234 -177
460 -270 645 -156 313 -670 1220 -692 1220 -4 0 -52 -75 -106 -167z"/>
<path d="M6341 5584 c-201 -335 -501 -880 -612 -1109 -94 -195 -209 -486 -278
-699 -345 -1070 -214 -1874 384 -2341 143 -112 314 -204 493 -266 l82 -29 98
36 c254 95 458 228 634 412 459 483 531 1253 207 2225 -66 200 -179 484 -261
657 -106 224 -576 1065 -672 1202 -10 14 -21 2 -75 -88z"/>
<path d="M75 5478 c28 -23 84 -76 125 -118 222 -227 405 -598 531 -1075 206
-782 701 -1435 1404 -1854 173 -103 281 -157 467 -234 241 -100 529 -184 758
-222 52 -8 111 -18 130 -21 33 -6 31 -2 -70 103 -307 318 -474 731 -552 1363
-15 119 -18 662 -5 832 l8 107 -133 134 c-150 151 -315 278 -505 392 -514 308
-1227 526 -2003 615 -96 11 -182 20 -190 20 -8 -1 8 -19 35 -42z"/>
<path d="M12650 5513 c-842 -84 -1622 -320 -2158 -652 -181 -113 -297 -205
-456 -363 -124 -123 -147 -151 -143 -170 15 -61 29 -420 23 -593 -17 -515
-105 -915 -277 -1260 -84 -171 -174 -299 -296 -425 -51 -52 -93 -96 -93 -97 0
-1 17 1 38 4 616 87 1221 342 1692 714 130 103 335 302 447 434 46 55 130 170
187 255 213 318 332 587 447 1015 73 272 206 577 340 780 70 106 224 275 309
338 l35 27 -30 -2 c-16 -1 -46 -3 -65 -5z"/>
<path d="M3110 4696 c0 -3 9 -20 20 -38 57 -98 66 -249 42 -753 -31 -654 58
-1117 305 -1585 277 -524 657 -828 1172 -937 114 -25 146 -27 346 -27 192 -1
235 2 338 23 64 13 117 24 117 26 0 2 -36 38 -80 80 -237 231 -380 576 -431
1040 -24 218 -13 614 23 852 10 67 9 78 -12 135 -70 193 -265 402 -555 595
-278 185 -653 366 -1083 523 -199 72 -202 73 -202 66z"/>
<path d="M9460 4631 c-260 -95 -386 -149 -607 -256 -566 -275 -905 -552 -1026
-839 l-30 -71 19 -155 c29 -236 27 -732 -4 -920 -66 -403 -188 -673 -403 -894
-48 -49 -87 -91 -85 -93 6 -6 150 -32 239 -44 140 -17 402 -7 542 21 542 107
936 435 1220 1015 221 450 300 876 273 1470 -6 121 -11 312 -12 425 -1 221 7
280 50 359 26 48 27 51 17 51 -5 0 -91 -31 -193 -69z"/>
<path d="M845 2925 c-393 -58 -690 -167 -818 -303 l-29 -30 79 -67 c175 -150
393 -270 667 -369 16 -5 6 -15 -53 -56 -106 -73 -177 -130 -258 -204 -72 -67
-179 -185 -172 -189 2 -2 49 0 104 3 160 10 692 -23 713 -44 3 -3 -42 -54 -99
-113 -105 -108 -193 -213 -263 -310 l-37 -52 53 -15 c672 -193 1360 -192 1933
3 49 17 94 31 98 31 5 0 -8 -19 -28 -42 -21 -24 -76 -89 -122 -145 -87 -104
-135 -143 -234 -186 -54 -24 -208 -75 -299 -98 l-45 -12 40 -14 c22 -7 103
-29 180 -48 675 -166 1477 -159 2367 19 l207 41 43 -59 c61 -84 199 -222 293
-293 244 -182 502 -290 840 -349 144 -26 505 -26 670 0 528 81 945 314 1225
685 l25 33 142 -31 c945 -207 1889 -214 2582 -19 127 36 128 33 -24 74 -119
32 -237 81 -305 124 -31 20 -93 85 -170 176 -66 79 -117 144 -112 144 4 0 48
-14 97 -31 538 -182 1157 -196 1796 -38 89 21 167 43 174 47 23 12 -128 204
-298 378 l-98 102 43 6 c216 31 705 52 766 32 13 -4 22 -3 22 3 0 5 -51 61
-112 124 -111 111 -258 233 -345 284 -25 14 -41 29 -36 33 4 4 53 24 108 45
207 78 401 191 563 327 l84 70 -29 30 c-105 111 -351 215 -643 272 -111 22
-272 46 -307 46 -6 0 -28 -28 -49 -62 -141 -232 -546 -618 -894 -851 -291
-196 -721 -332 -1154 -367 -168 -13 -250 -13 -337 2 -67 12 -71 11 -82 -7 -35
-64 -199 -207 -357 -312 -326 -218 -722 -358 -1150 -408 -147 -18 -418 -20
-475 -4 -37 10 -41 9 -54 -12 -94 -151 -340 -244 -742 -280 -346 -32 -904 83
-1079 221 -38 30 -38 30 -168 30 -574 0 -1074 155 -1482 459 -98 73 -258 228
-290 281 -25 40 -26 41 -70 35 -215 -28 -543 -2 -813 65 -213 53 -465 151
-621 240 -110 63 -384 272 -523 399 -165 150 -361 366 -436 478 -70 105 -55
99 -202 78z"/>
</g>
</svg>
